<svg xmlns="http://www.w3.org/2000/svg" viewBox="0 0 420 760" preserveAspectRatio="xMidYMid meet"><path fill="#fff" fill-rule="evenodd" d="M155,705 L146,713 L128,720 L106,720 L93,714 L93,720 L107,726 L132,725 L150,716 L155,710ZM152,708 L153,712 L150,710ZM241,704 L243,711 L283,717 L312,718 L331,713 L331,707 L318,712 L298,713 L243,705 L242,709ZM96,706 L99,710 L112,713 L138,709 L129,701 L120,698 L102,699ZM154,697 L152,685 L138,686 L141,690 L135,696 L118,692 L134,697 L140,702 L141,707ZM242,697 L290,705 L313,705 L328,701 L310,691 L291,698 L288,695 L301,686 L292,687 L285,693 L281,688 L292,681 L285,682 L277,688 L273,686 L277,680 L244,683ZM237,389 L187,416 L185,423 L179,428 L164,433 L132,431 L114,417 L119,452 L133,457 L170,455 L215,444 L241,433 L244,424ZM170,378 L168,381 L156,381 L151,389 L152,412 L161,425 L178,419 L172,411 L168,397ZM300,338 L254,347 L225,364 L177,382 L176,394 L180,409 L236,380 L253,383 L273,380 L280,360 L273,350 L297,342ZM209,327 L198,329 L202,341 L203,336 L211,339 L205,335 L210,332ZM210,330 L205,334 L200,333 L202,328ZM390,286 L399,287 L391,284ZM125,283 L120,293 L121,297 L145,316 L155,301ZM175,277 L177,284 L173,295 L185,303 L184,284ZM289,277 L192,286 L192,306 L188,311 L172,303 L183,362 L179,360 L166,314 L161,306 L147,323 L130,314 L116,300 L106,307 L90,328 L89,350 L101,382 L121,414 L134,423 L151,424 L143,404 L144,389 L149,379 L126,340 L128,336 L135,341 L155,374 L168,370 L182,372 L183,364 L189,369 L230,353 L228,327 L235,330 L296,311 L295,295ZM101,322 L104,318 L113,320 L126,332 L122,334ZM212,315 L218,319 L223,342 L218,348 L197,352 L192,347 L187,325 L192,320ZM310,269 L293,272 L301,289 L303,311 L320,306 L318,284ZM403,250 L382,254 L357,265 L321,272 L328,295 L360,282 L382,286 L386,281 L378,283 L375,279 L389,271 L403,274 L403,268 L391,261 L393,258 L402,257ZM173,167 L158,175 L137,172 L111,194 L112,203 L107,228 L104,231 L95,228 L92,232 L96,243 L109,243 L120,255 L133,263 L136,283 L158,294 L165,301 L168,288 L166,279 L155,278 L139,267 L163,266 L179,259 L191,246 L200,221 L199,200 L193,181ZM181,234 L177,242 L165,250 L155,250 L141,238 L143,234 L155,237 L168,236 L176,231ZM164,212 L173,219 L169,228 L165,226 L166,220 L162,215ZM138,199 L146,207 L146,215 L141,221 L132,213 L132,205ZM177,193 L183,196 L186,204 L180,215 L173,210 L171,204 L173,196Z"/><path fill="#e8e5e2" fill-rule="evenodd" d="M156,704 L150,709 L153,711 L151,708 L156,705 L156,710 L152,715 L156,710ZM140,687 L138,692 L133,688 L130,689 L136,690 L135,695ZM213,361 L189,370 L183,365 L183,372 L179,374 L168,371 L179,374 L184,370ZM179,339 L181,353 L178,353 L180,360 L183,361ZM161,297 L164,300 L164,296Z"/><path fill="#111" fill-rule="evenodd" d="M113,689 L135,694 L134,691 L129,689ZM103,321 L124,332 L117,324 L107,320ZM403,266 L403,258 L393,260 L395,263ZM179,234 L177,232 L170,237 L162,239 L150,238 L144,235 L143,239 L152,247 L166,248 L175,242ZM164,214 L168,220 L166,225 L169,226 L171,219 L167,214ZM138,201 L134,204 L133,212 L138,219 L141,219 L144,216 L145,209 L143,204ZM177,195 L174,197 L173,205 L175,211 L180,213 L183,210 L184,203 L181,196ZM128,90 L116,96 L107,106 L91,105 L81,109 L73,116 L68,124 L65,139 L53,145 L44,155 L41,164 L41,174 L45,185 L37,194 L34,205 L35,215 L39,224 L52,235 L52,244 L62,257 L91,266 L102,276 L121,278 L114,292 L91,312 L83,326 L81,334 L82,354 L90,376 L105,403 L110,451 L117,460 L96,668 L97,676 L106,682 L87,707 L85,715 L86,723 L91,729 L100,733 L124,735 L147,728 L162,714 L163,702 L160,683 L168,680 L173,672 L192,509 L216,632 L222,673 L226,678 L236,682 L233,702 L234,713 L242,719 L280,725 L315,726 L326,724 L335,720 L339,715 L339,704 L337,700 L326,690 L302,679 L295,673 L299,669 L299,662 L276,549 L249,438 L251,420 L245,394 L246,389 L268,389 L276,386 L284,373 L284,365 L286,362 L285,353 L302,347 L307,341 L307,336 L301,331 L285,333 L248,342 L237,350 L234,338 L299,317 L307,318 L319,314 L326,309 L328,302 L363,288 L374,293 L402,293 L403,283 L398,283 L393,278 L403,279 L403,276 L390,273 L386,277 L376,280 L388,281 L382,288 L360,284 L327,297 L319,272 L359,263 L377,254 L403,248 L403,243 L377,248 L357,258 L317,266 L313,263 L302,263 L293,265 L286,270 L262,274 L187,279 L179,271 L198,251 L209,232 L210,222 L219,215 L225,205 L226,193 L221,182 L229,170 L229,151 L221,138 L205,130 L203,119 L193,106 L180,101 L165,102 L147,90ZM157,704 L157,710 L146,721 L131,727 L108,728 L99,726 L91,720 L92,713 L110,719 L130,718 L145,712 L155,703ZM240,703 L291,711 L314,711 L332,706 L333,713 L319,719 L284,719 L244,713 L240,710ZM94,707 L102,697 L117,696 L130,700 L140,709 L129,714 L112,715 L99,712ZM156,697 L141,709 L138,702 L129,696 L119,693 L107,694 L106,692 L110,687 L115,685 L130,686 L138,691 L139,688 L135,685 L153,683ZM240,694 L244,681 L280,678 L281,679 L274,685 L277,686 L285,680 L293,679 L293,682 L287,684 L282,689 L285,691 L298,683 L302,685 L301,688 L290,695 L292,697 L303,690 L309,689 L323,695 L330,702 L313,707 L291,707 L242,699ZM239,388 L246,425 L241,435 L215,446 L169,457 L135,459 L123,457 L117,452 L112,419 L113,414 L124,425 L135,430 L150,431 L156,429 L165,431 L181,425 L185,416 L232,389 L236,387ZM170,376 L172,378 L170,383 L171,403 L175,413 L180,419 L161,427 L151,414 L148,399 L152,383 L156,379ZM302,338 L297,344 L275,350 L275,352 L281,356 L281,361 L278,364 L280,369 L272,382 L248,384 L238,381 L181,412 L179,411 L174,393 L174,383 L177,380 L226,362 L255,345 L296,336ZM389,284 L391,282 L394,285 L402,286 L399,289 L392,289 L389,287ZM126,279 L130,286 L157,300 L146,317 L136,312 L119,297 L119,291ZM290,276 L297,296 L298,311 L232,332 L230,328 L228,330 L232,353 L198,368 L184,371 L179,375 L172,372 L154,375 L134,342 L129,337 L129,343 L150,378 L145,392 L145,406 L152,425 L138,426 L130,423 L121,416 L103,389 L92,366 L87,349 L87,332 L89,326 L96,315 L116,298 L126,309 L144,321 L148,321 L161,304 L167,311 L176,346 L180,353 L180,346 L171,316 L170,304 L174,301 L188,309 L190,307 L191,284 L235,282 L285,275ZM174,275 L186,285 L186,304 L171,296 L175,285ZM310,267 L314,271 L320,285 L322,305 L317,309 L303,313 L301,311 L301,298 L298,285 L292,272ZM174,166 L193,178 L200,196 L202,220 L194,244 L180,260 L163,268 L141,267 L154,276 L167,279 L170,288 L167,302 L165,303 L157,295 L135,284 L132,281 L131,263 L118,255 L109,245 L101,247 L95,244 L91,239 L90,232 L95,226 L105,228 L110,207 L109,194 L119,188 L136,171 L154,174Z"/><path fill="#ef442f" fill-rule="evenodd" d="M208,330 L205,329 L201,332 L206,332ZM214,317 L208,317 L189,324 L190,335 L196,350 L202,351 L217,347 L221,343 L218,324ZM209,325 L212,328 L212,331 L207,335 L213,339 L210,341 L204,337 L202,343 L197,328Z"/></svg>