<svg xmlns="http://www.w3.org/2000/svg" viewBox="-120 -400 320 400"><g transform="translate(0,0) scale(1)"><path d="M -7,-6.6 L -7,-5.9 L -7,-4.7 L -7,-2.8 L -6.9,-0.3 L -6.9,2.2 L -6.9,4.7 L -6.9,7.2 L -6.9,9.7 L -6.8,12.2 L -6.8,14.7 L -6.8,17.2 L -6.8,19.7 L -6.8,22.2 L -6.7,24.7 L -6.7,27.2 L -6.7,29.7 L -6.7,32.2 L -6.7,34.7 L -6.6,37.2 L -6.6,39.7 L -6.6,42.2 L -6.6,44.7 L -6.6,47.2 L -6.5,49.7 L -6.5,52.2 L -6.5,54.7 L -6.5,57.2 L -6.5,59.7 L -6.4,62.2 L -6.4,64.7 L -6.4,67.2 L -6.4,69.7 L -6.4,72.2 L -6.3,74.7 L -6.3,77.2 L -6.3,79.7 L -6.3,82.2 L -6.3,84.7 L -6.2,87.2 L -6.2,89.7 L -6.2,92.2 L -6.2,94.7 L -6.2,97.2 L -6.1,99.7 L -6.1,102.3 L -6.1,104.8 L -6.1,107.3 L -6.1,109.8 L -6,112.3 L -6,114.8 L -6,117.3 L -6,119.8 L -6,122.3 L -5.9,124.8 L -5.9,127.3 L -5.9,129.8 L -5.9,132.3 L -5.9,134.8 L -5.8,137.3 L -5.8,139.6 L -5.8,141.7 L -5.9,143.8 L -6.1,145.8 L -6.3,148.1 L -6.5,150.5 L -6.8,152.9 L -7,155.3 L -7.3,157.7 L -7.5,160.2 L -7.8,162.6 L -8,165 L -8.3,167.4 L -8.5,169.8 L -8.8,172.3 L -9,174.7 L -9.2,177.1 L -9.5,179.5 L -9.7,182 L -10,184.4 L -10.2,186.8 L -10.5,189.2 L -10.7,191.6 L -11,194.1 L -11.2,196.5 L -11.5,198.9 L -11.7,201.3 L -11.9,203.7 L -12.2,206.2 L -12.4,208.6 L -12.7,211 L -12.9,213.4 L -13.2,215.9 L -13.4,218.3 L -13.7,220.7 L -13.9,223.1 L -14.2,225.5 L -14.4,228 L -14.6,230.4 L -14.9,232.8 L -15.1,235.2 L -15.4,237.6 L -15.6,240.1 L -15.9,242.5 L -16.1,244.9 L -16.4,247.3 L -16.6,249.7 L -16.9,252.2 L -17.1,254.6 L -17.3,257 L -17.6,259.4 L -17.8,261.9 L -18.1,264.3 L -18.3,266.7 L -18.6,269.1 L -18.8,271.5 L -19.1,274 L -19.3,276.4 L -19.6,278.8 L -19.8,281.2 L -20,283.6 L -20.2,285.5 L -20.4,286.7 L -20.4,287.3 L 9.4,290.7 L 9.5,290.1 L 9.6,288.9 L 9.9,287.1 L 10.2,284.7 L 10.5,282.3 L 10.8,279.8 L 11.1,277.4 L 11.4,275 L 11.7,272.6 L 12,270.2 L 12.4,267.8 L 12.7,265.4 L 13,263 L 13.3,260.5 L 13.6,258.1 L 13.9,255.7 L 14.2,253.3 L 14.5,250.9 L 14.8,248.5 L 15.2,246.1 L 15.5,243.6 L 15.8,241.2 L 16.1,238.8 L 16.4,236.4 L 16.7,234 L 17,231.6 L 17.3,229.2 L 17.7,226.8 L 18,224.3 L 18.3,221.9 L 18.6,219.5 L 18.9,217.1 L 19.2,214.7 L 19.5,212.3 L 19.8,209.9 L 20.1,207.4 L 20.5,205 L 20.8,202.6 L 21.1,200.2 L 21.4,197.8 L 21.7,195.4 L 22,193 L 22.3,190.5 L 22.6,188.1 L 22.9,185.7 L 23.3,183.3 L 23.6,180.9 L 23.9,178.5 L 24.2,176.1 L 24.5,173.7 L 24.8,171.2 L 25.1,168.8 L 25.4,166.4 L 25.8,164 L 26.1,161.6 L 26.4,159.2 L 26.7,156.8 L 27,154.3 L 27.3,151.9 L 27.6,149.3 L 27.9,146.5 L 28.2,143.7 L 28.4,140.8 L 28.6,138.1 L 28.7,135.6 L 28.9,133.1 L 29,130.6 L 29.2,128.2 L 29.3,125.7 L 29.4,123.2 L 29.6,120.7 L 29.7,118.2 L 29.9,115.7 L 30,113.2 L 30.2,110.7 L 30.3,108.2 L 30.5,105.7 L 30.6,103.2 L 30.8,100.7 L 30.9,98.2 L 31.1,95.7 L 31.2,93.2 L 31.4,90.7 L 31.5,88.2 L 31.6,85.7 L 31.8,83.2 L 31.9,80.7 L 32.1,78.2 L 32.2,75.7 L 32.4,73.2 L 32.5,70.7 L 32.7,68.2 L 32.8,65.7 L 33,63.2 L 33.1,60.7 L 33.3,58.2 L 33.4,55.7 L 33.5,53.2 L 33.7,50.7 L 33.8,48.2 L 34,45.7 L 34.1,43.2 L 34.3,40.8 L 34.4,38.3 L 34.6,35.8 L 34.7,33.3 L 34.9,30.8 L 35,28.3 L 35.2,25.8 L 35.3,23.3 L 35.5,20.8 L 35.6,18.3 L 35.7,15.8 L 35.9,13.3 L 36,10.8 L 36.2,8.3 L 36.3,5.8 L 36.5,3.3 L 36.6,0.8 L 36.8,-1.7 L 36.9,-3.6 L 37,-4.8 L 37,-5.4 Z" fill="#1B1C21" stroke="#1E1B18" stroke-width="2.6" stroke-linejoin="round" stroke-linecap="round" /><path d="M 18,-6 L 17.8,3.4 L 17.3,22.1 L 16.6,50.2 L 15.6,87.7 L 13.9,124.9 L 11.3,161.8 L 7.9,198.3 L 3.8,234.6 L 0.6,261.8 L -1.5,279.9 L -2.5,289" fill="none" stroke="#2A2B31" stroke-width="1.5" stroke-linejoin="round" stroke-linecap="round" /><g transform="translate(-5.5,289) rotate(0)"><path d="M -15,-8 L 12,-8 C 26,-4 38,2 40,10 C 41,15 37,18 31,18 L -15,18 C -18,10 -17,0 -15,-8 Z" fill="#141417" stroke="#1E1B18" stroke-width="2.6" stroke-linejoin="round" stroke-linecap="round" /><path d="M -14,12 L 37,12" fill="none" stroke="#2C2C31" stroke-width="1.3" stroke-linejoin="round" stroke-linecap="round" /><path d="M -16,-14 L 15,-14 L 16,-2 L -17,-2 Z" fill="#1B1C21" stroke="none" stroke-width="0" stroke-linejoin="round" stroke-linecap="round" /></g><path d="M 32.9,-193 L 33.5,-193 L 34.5,-193 L 36.2,-192.9 L 38.3,-192.8 L 40.5,-192.6 L 42.7,-192.5 L 44.8,-192.4 L 47,-192.3 L 49.1,-192.2 L 51.3,-192.1 L 53.5,-191.9 L 55.6,-191.8 L 57.8,-191.7 L 60,-191.6 L 62.1,-191.5 L 64.3,-191.4 L 66.5,-191.3 L 68.6,-191.1 L 70.8,-191 L 73,-190.9 L 75.1,-190.8 L 77.3,-190.7 L 79.4,-190.6 L 81.6,-190.5 L 83.8,-190.3 L 85.9,-190.2 L 88.1,-190.1 L 90.3,-190 L 92.4,-189.9 L 94.6,-189.8 L 96.8,-189.7 L 98.9,-189.5 L 101.1,-189.4 L 103.2,-189.3 L 105.4,-189.2 L 107.6,-189.1 L 109.7,-189 L 111.9,-188.8 L 114.1,-188.7 L 116.2,-188.6 L 118.4,-188.5 L 120.6,-188.4 L 122.7,-188.3 L 124.9,-188.2 L 127.1,-188 L 129.2,-187.9 L 131.4,-187.8 L 133.5,-187.7 L 135.2,-187.6 L 136.2,-187.6 L 136.8,-187.5 L 140.2,-187.7 L 143.4,-188.8 L 146.2,-190.7 L 148.5,-193.2 L 150,-196.2 L 150.7,-199.6 L 150.5,-202.9 L 149.4,-206.2 L 147.6,-209 L 145,-211.3 L 142,-212.8 L 138.7,-213.5 L 138.1,-213.5 L 137,-213.6 L 135.4,-213.8 L 133.3,-214 L 131.1,-214.2 L 129,-214.4 L 126.8,-214.5 L 124.6,-214.7 L 122.5,-214.9 L 120.3,-215.1 L 118.2,-215.3 L 116,-215.5 L 113.8,-215.7 L 111.7,-215.9 L 109.5,-216.1 L 107.4,-216.3 L 105.2,-216.5 L 103.1,-216.7 L 100.9,-216.9 L 98.7,-217.1 L 96.6,-217.3 L 94.4,-217.5 L 92.3,-217.7 L 90.1,-217.9 L 88,-218.1 L 85.8,-218.3 L 83.6,-218.5 L 81.5,-218.7 L 79.3,-218.9 L 77.2,-219.1 L 75,-219.3 L 72.8,-219.5 L 70.7,-219.7 L 68.5,-219.9 L 66.4,-220.1 L 64.2,-220.3 L 62.1,-220.5 L 59.9,-220.7 L 57.7,-220.9 L 55.6,-221.1 L 53.4,-221.3 L 51.3,-221.5 L 49.1,-221.7 L 47,-221.9 L 44.8,-222.1 L 42.6,-222.3 L 40.5,-222.5 L 38.3,-222.7 L 36.7,-222.8 L 35.6,-222.9 L 35.1,-223 L 31.2,-222.7 L 27.5,-221.5 L 24.2,-219.3 L 21.6,-216.4 L 19.8,-212.9 L 19,-209.1 L 19.3,-205.2 L 20.5,-201.5 L 22.7,-198.2 L 25.6,-195.6 L 29.1,-193.8 Z" fill="#C28E30" stroke="#1E1B18" stroke-width="2.6" stroke-linejoin="round" stroke-linecap="round" /><g transform="translate(128,-296) rotate(174.2) scale(1.18)"><path d="M -12,-2 C -15,8 -14,18 -12,24 L -14,40 C -14,44 -9,44 -9,40 L -6,28 L -5,44 C -5,48 0,48 0,44 L 1,28 L 4,42 C 5,46 10,45 9,41 L 7,26 L 11,36 C 13,40 17,38 16,34 L 12,20 C 13,12 13,4 11,-2 Z" fill="#C8946C" stroke="#1E1B18" stroke-width="2.6" stroke-linejoin="round" stroke-linecap="round" /><path d="M 11,4 C 18,6 22,12 20,17 C 18,19 15,17 13,13 Z" fill="#C8946C" stroke="#1E1B18" stroke-width="2" stroke-linejoin="round" stroke-linecap="round" /></g><path d="M 150.7,-201.8 L 150.6,-202.4 L 150.4,-203.6 L 150.2,-205.4 L 149.9,-207.8 L 149.6,-210.2 L 149.3,-212.5 L 149.1,-214.9 L 148.8,-217.3 L 148.5,-219.7 L 148.2,-222.1 L 147.9,-224.4 L 147.6,-226.8 L 147.3,-229.2 L 147,-231.6 L 146.7,-234 L 146.4,-236.4 L 146.1,-238.7 L 145.8,-241.1 L 145.5,-243.5 L 145.2,-245.9 L 144.9,-248.3 L 144.7,-250.7 L 144.4,-253 L 144.1,-255.4 L 143.8,-257.8 L 143.5,-260.2 L 143.2,-262.6 L 142.9,-264.9 L 142.6,-267.3 L 142.3,-269.7 L 142,-272.1 L 141.7,-274.5 L 141.4,-276.9 L 141.1,-279.2 L 140.8,-281.6 L 140.6,-284 L 140.3,-286.4 L 140,-288.8 L 139.7,-291.2 L 139.4,-293.5 L 139.2,-295.3 L 139,-296.5 L 138.9,-297.1 L 117.1,-294.9 L 117.1,-294.3 L 117.2,-293.1 L 117.3,-291.3 L 117.5,-288.9 L 117.7,-286.5 L 117.9,-284.1 L 118.1,-281.7 L 118.3,-279.3 L 118.5,-276.9 L 118.7,-274.5 L 118.9,-272.2 L 119.1,-269.8 L 119.3,-267.4 L 119.5,-265 L 119.7,-262.6 L 119.9,-260.2 L 120.1,-257.8 L 120.2,-255.4 L 120.4,-253 L 120.6,-250.6 L 120.8,-248.2 L 121,-245.8 L 121.2,-243.4 L 121.4,-241 L 121.6,-238.7 L 121.8,-236.3 L 122,-233.9 L 122.2,-231.5 L 122.4,-229.1 L 122.6,-226.7 L 122.8,-224.3 L 123,-221.9 L 123.2,-219.5 L 123.3,-217.1 L 123.5,-214.7 L 123.7,-212.3 L 123.9,-209.9 L 124.1,-207.6 L 124.3,-205.2 L 124.5,-202.8 L 124.7,-201 L 124.7,-199.8 L 124.8,-199.2 L 125.6,-195.9 L 127.2,-192.9 L 129.5,-190.4 L 132.4,-188.6 L 135.7,-187.7 L 139,-187.6 L 142.3,-188.3 L 145.3,-190 L 147.8,-192.3 L 149.6,-195.2 L 150.6,-198.4 Z" fill="#C28E30" stroke="#1E1B18" stroke-width="2.6" stroke-linejoin="round" stroke-linecap="round" /><path d="M 128.3,-207.5 Q 133.3,-202.5 138.3,-207.5" fill="none" stroke="#A6782A" stroke-width="1.4" stroke-linejoin="round" stroke-linecap="round" /><path d="M 141.9,-283.3 L 117,-280.8 L 115.6,-294.7 L 140.4,-297.3 Z" fill="#C28E30" stroke="#1E1B18" stroke-width="2.2" stroke-linejoin="round" stroke-linecap="round" /><path d="M -38.8,-1.4 L -38.8,-0.8 L -38.6,0.4 L -38.3,2.1 L -37.9,4.4 L -37.6,6.8 L -37.2,9.1 L -36.9,11.4 L -36.5,13.7 L -36.1,16 L -35.8,18.3 L -35.4,20.7 L -35.1,23 L -34.7,25.3 L -34.3,27.6 L -34,29.9 L -33.6,32.2 L -33.3,34.6 L -32.9,36.9 L -32.5,39.2 L -32.2,41.5 L -31.8,43.8 L -31.5,46.2 L -31.1,48.5 L -30.7,50.8 L -30.4,53.1 L -30,55.4 L -29.7,57.7 L -29.3,60.1 L -29,62.4 L -28.6,64.7 L -28.2,67 L -27.9,69.3 L -27.5,71.6 L -27.2,74 L -26.8,76.3 L -26.4,78.6 L -26.1,80.9 L -25.7,83.2 L -25.4,85.5 L -25,87.9 L -24.6,90.2 L -24.3,92.5 L -23.9,94.8 L -23.6,97.1 L -23.2,99.5 L -22.8,101.8 L -22.5,104.1 L -22.1,106.4 L -21.8,108.7 L -21.4,111 L -21,113.4 L -20.7,115.7 L -20.3,118 L -20,120.3 L -19.6,122.6 L -19.2,124.9 L -18.9,127.3 L -18.5,129.6 L -18.2,131.9 L -17.8,134.2 L -17.4,136.5 L -17.1,138.8 L -16.7,141.2 L -16.4,143.3 L -16.1,145.2 L -15.9,147.2 L -15.8,149.3 L -15.7,151.5 L -15.6,153.9 L -15.4,156.4 L -15.3,158.8 L -15.2,161.2 L -15.1,163.7 L -15,166.1 L -14.9,168.5 L -14.8,171 L -14.7,173.4 L -14.6,175.8 L -14.5,178.3 L -14.4,180.7 L -14.2,183.1 L -14.1,185.6 L -14,188 L -13.9,190.4 L -13.8,192.8 L -13.7,195.3 L -13.6,197.7 L -13.5,200.1 L -13.4,202.6 L -13.3,205 L -13.2,207.4 L -13,209.9 L -12.9,212.3 L -12.8,214.7 L -12.7,217.2 L -12.6,219.6 L -12.5,222 L -12.4,224.5 L -12.3,226.9 L -12.2,229.3 L -12.1,231.7 L -12,234.2 L -11.8,236.6 L -11.7,239 L -11.6,241.5 L -11.5,243.9 L -11.4,246.3 L -11.3,248.8 L -11.2,251.2 L -11.1,253.6 L -11,256.1 L -10.9,258.5 L -10.8,260.9 L -10.6,263.3 L -10.5,265.8 L -10.4,268.2 L -10.3,270.6 L -10.2,273.1 L -10.1,275.5 L -10,277.9 L -9.9,280.4 L -9.8,282.8 L -9.7,285.2 L -9.6,287.7 L -9.5,289.5 L -9.4,290.7 L -9.4,291.3 L 20.6,290.4 L 20.6,289.8 L 20.6,288.5 L 20.5,286.7 L 20.5,284.3 L 20.4,281.9 L 20.4,279.4 L 20.4,277 L 20.3,274.6 L 20.3,272.1 L 20.2,269.7 L 20.2,267.3 L 20.2,264.8 L 20.1,262.4 L 20.1,260 L 20,257.5 L 20,255.1 L 19.9,252.7 L 19.9,250.2 L 19.9,247.8 L 19.8,245.4 L 19.8,242.9 L 19.7,240.5 L 19.7,238.1 L 19.6,235.6 L 19.6,233.2 L 19.6,230.8 L 19.5,228.3 L 19.5,225.9 L 19.4,223.5 L 19.4,221 L 19.3,218.6 L 19.3,216.2 L 19.3,213.7 L 19.2,211.3 L 19.2,208.9 L 19.1,206.4 L 19.1,204 L 19,201.6 L 19,199.1 L 19,196.7 L 18.9,194.3 L 18.9,191.8 L 18.8,189.4 L 18.8,187 L 18.7,184.5 L 18.7,182.1 L 18.7,179.7 L 18.6,177.2 L 18.6,174.8 L 18.5,172.4 L 18.5,169.9 L 18.4,167.5 L 18.4,165.1 L 18.4,162.6 L 18.3,160.2 L 18.3,157.8 L 18.2,155.3 L 18.2,152.9 L 18.2,150.5 L 18.1,147.8 L 18,145.1 L 17.8,142.3 L 17.6,139.6 L 17.4,137 L 17.2,134.7 L 17,132.4 L 16.8,130 L 16.6,127.7 L 16.4,125.3 L 16.2,123 L 16,120.7 L 15.8,118.3 L 15.6,116 L 15.4,113.7 L 15.2,111.3 L 15,109 L 14.8,106.7 L 14.6,104.3 L 14.3,102 L 14.1,99.6 L 13.9,97.3 L 13.7,95 L 13.5,92.6 L 13.3,90.3 L 13.1,88 L 12.9,85.6 L 12.7,83.3 L 12.5,81 L 12.3,78.6 L 12.1,76.3 L 11.9,73.9 L 11.7,71.6 L 11.5,69.3 L 11.3,66.9 L 11.1,64.6 L 10.9,62.3 L 10.7,59.9 L 10.5,57.6 L 10.3,55.3 L 10.1,52.9 L 9.9,50.6 L 9.6,48.3 L 9.4,45.9 L 9.2,43.6 L 9,41.2 L 8.8,38.9 L 8.6,36.6 L 8.4,34.2 L 8.2,31.9 L 8,29.6 L 7.8,27.2 L 7.6,24.9 L 7.4,22.6 L 7.2,20.2 L 7,17.9 L 6.8,15.5 L 6.6,13.2 L 6.4,10.9 L 6.2,8.5 L 6,6.2 L 5.8,3.9 L 5.6,1.5 L 5.4,-0.8 L 5.1,-3.1 L 5,-4.9 L 4.9,-6.1 L 4.8,-6.6 Z" fill="#2C3446" stroke="#1E1B18" stroke-width="2.6" stroke-linejoin="round" stroke-linecap="round" /><path d="M -14,-4 L -12.9,5.3 L -10.6,23.9 L -7.2,51.8 L -2.7,89.1 L 1,126.1 L 3.8,163 L 5.8,199.6 L 6.9,236.1 L 7.8,263.5 L 8.3,281.7 L 8.6,290.8" fill="none" stroke="#3B4458" stroke-width="1.5" stroke-linejoin="round" stroke-linecap="round" /><g transform="translate(5.6,290.8) rotate(0)"><path d="M -15,-8 L 12,-8 C 26,-4 38,2 40,10 C 41,15 37,18 31,18 L -15,18 C -18,10 -17,0 -15,-8 Z" fill="#141417" stroke="#1E1B18" stroke-width="2.6" stroke-linejoin="round" stroke-linecap="round" /><path d="M -14,12 L 37,12" fill="none" stroke="#2C2C31" stroke-width="1.3" stroke-linejoin="round" stroke-linecap="round" /><path d="M -16,-14 L 15,-14 L 16,-2 L -17,-2 Z" fill="#2C3446" stroke="none" stroke-width="0" stroke-linejoin="round" stroke-linecap="round" /></g><g transform="translate(2,-236) rotate(4,0,8) scale(1.12)"><path d="M 22,-100 C 8,-114 -24,-114 -38,-96 C -46,-84 -46,-62 -44,-44 C -43,-34 -40,-26 -34,-22 C -28,-20 -20,-22 -14,-24 L -14,-90 Z" fill="#2A1D17" stroke="#1E1B18" stroke-width="2.6" stroke-linejoin="round" stroke-linecap="round" /><path d="M -14,-40 C -14,-14 -15,4 -16,22 L 15,22 C 14,10 14,0 16,-10 C 20,-12 22,-14 22,-16 L 10,-34 Z" fill="#C8946C" stroke="#1E1B18" stroke-width="2.6" stroke-linejoin="round" stroke-linecap="round" /><path d="M -14,-26 C -8,-14 2,-8 12,-8 L 13,6 C 2,6 -6,0 -14,-10 Z" fill="#B07D57" stroke="none" stroke-width="0" stroke-linejoin="round" stroke-linecap="round" /><clipPath id="wt92wux"><path d="M -16,-84 C -19,-70 -19,-54 -16,-42 C -12,-28 -3,-16 9,-10 C 14,-8 19,-9 22,-14 C 26,-21 28,-30 29,-40 C 30,-47 32,-52 32,-58 C 32,-66 32,-76 30,-86 C 26,-100 16,-106 4,-106 C -6,-106 -13,-96 -16,-84 Z"/></clipPath><path d="M -16,-84 C -19,-70 -19,-54 -16,-42 C -12,-28 -3,-16 9,-10 C 14,-8 19,-9 22,-14 C 26,-21 28,-30 29,-40 C 30,-47 32,-52 32,-58 C 32,-66 32,-76 30,-86 C 26,-100 16,-106 4,-106 C -6,-106 -13,-96 -16,-84 Z" fill="#C8946C" stroke="none" stroke-width="0" stroke-linejoin="round" stroke-linecap="round" /><g clip-path="url(#wt92wux)"><path d="M -22,-58 C -16,-42 -8,-30 2,-20 C 8,-14 14,-11 20,-10 L 0,6 L -28,-20 Z" fill="#B07D57" stroke="none" stroke-width="0" stroke-linejoin="round" stroke-linecap="round" /></g><path d="M -16,-84 C -19,-70 -19,-54 -16,-42 C -12,-28 -3,-16 9,-10 C 14,-8 19,-9 22,-14 C 26,-21 28,-30 29,-40 C 30,-47 32,-52 32,-58 C 32,-66 32,-76 30,-86 C 26,-100 16,-106 4,-106 C -6,-106 -13,-96 -16,-84 Z" fill="none" stroke="#1E1B18" stroke-width="2.6" stroke-linejoin="round" stroke-linecap="round" /><path d="M -14,-64 C -21,-70 -28,-63 -27,-54 C -26,-46 -21,-41 -15,-43" fill="#C8946C" stroke="none" stroke-width="0" stroke-linejoin="round" stroke-linecap="round" /><path d="M -14,-64 C -21,-70 -28,-63 -27,-54 C -26,-46 -21,-41 -15,-43" fill="none" stroke="#1E1B18" stroke-width="2.6" stroke-linejoin="round" stroke-linecap="round" /><circle cx="-21" cy="-40" r="3" fill="#C9D6DB" stroke="#1E1B18" stroke-width="1.4"/><path d="M 28,-66 C 30,-60 33,-55 36,-51 C 37,-48 35,-46 32,-46 C 30,-46 29,-47 28,-48 Z" fill="#C8946C" stroke="none" stroke-width="0" stroke-linejoin="round" stroke-linecap="round" /><path d="M 28,-66 C 30,-60 33,-55 36,-51 C 37,-48 35,-46 32,-46 C 30.5,-46 29.5,-47 29,-48" fill="none" stroke="#1E1B18" stroke-width="2.6" stroke-linejoin="round" stroke-linecap="round" /><clipPath id="wt92wuxn"><path d="M -2.8,-59.4 C 1.4900000000000002,-65.4 8.51,-65.4 12.8,-60.6 C 8.120000000000001,-56.49 1.88,-56.49 -2.8,-59.4 Z"/></clipPath><path d="M -2.8,-59.4 C 1.4900000000000002,-65.4 8.51,-65.4 12.8,-60.6 C 8.120000000000001,-56.49 1.88,-56.49 -2.8,-59.4 Z" fill="#FBFAF6" stroke="none" stroke-width="0" stroke-linejoin="round" stroke-linecap="round" /><g clip-path="url(#wt92wuxn)"><circle cx="7.983499999999999" cy="-59.295" r="3.4" fill="#2B1D15"/><circle cx="9.003499999999999" cy="-60.587" r="0.85" fill="#FBFAF6"/><path d="M -4.8,-73.4 L 14.8,-73.4 L 14.8,-63.617999999999995 C 8.9,-66.291 1.1,-66.291 -4.8,-63.617999999999995 Z" fill="#C8946C"/></g><path d="M -3.8,-62.818 C 1.1,-66.291 8.9,-66.291 14.8,-64.618" fill="none" stroke="#1E1B18" stroke-width="2.8" stroke-linejoin="round" stroke-linecap="round" /><path d="M 13.8,-64.618 l 3,-2.4" fill="none" stroke="#1E1B18" stroke-width="2" stroke-linejoin="round" stroke-linecap="round" /><clipPath id="wt92wuxf"><path d="M 19.7,-59.4 C 22.34,-64.8 26.66,-64.8 29.3,-60.6 C 26.42,-56.88 22.58,-56.88 19.7,-59.4 Z"/></clipPath><path d="M 19.7,-59.4 C 22.34,-64.8 26.66,-64.8 29.3,-60.6 C 26.42,-56.88 22.58,-56.88 19.7,-59.4 Z" fill="#FBFAF6" stroke="none" stroke-width="0" stroke-linejoin="round" stroke-linecap="round" /><g clip-path="url(#wt92wuxf)"><circle cx="26.336" cy="-59.34" r="2.9" fill="#2B1D15"/><circle cx="27.206" cy="-60.442" r="0.725" fill="#FBFAF6"/><path d="M 17.7,-72.8 L 31.3,-72.8 L 31.3,-63.216 C 26.9,-65.592 22.1,-65.592 17.7,-63.216 Z" fill="#C8946C"/></g><path d="M 18.7,-62.416000000000004 C 22.1,-65.592 26.9,-65.592 31.3,-64.21600000000001" fill="none" stroke="#1E1B18" stroke-width="2.8" stroke-linejoin="round" stroke-linecap="round" /><path d="M 30.3,-64.21600000000001 l 3,-2.4" fill="none" stroke="#1E1B18" stroke-width="2" stroke-linejoin="round" stroke-linecap="round" /><path d="M -3,-70.6 C 2,-74.1 9,-74.6 14,-72.6" fill="none" stroke="#2A1D17" stroke-width="2.6" stroke-linejoin="round" stroke-linecap="round" /><path d="M 20,-72.2 C 24,-74.2 28,-74.2 31,-72.2" fill="none" stroke="#2A1D17" stroke-width="2.4" stroke-linejoin="round" stroke-linecap="round" /><path d="M 15,-31 C 18,-33 25,-33 28,-31 C 27,-25 24,-23 21.6,-23 C 19,-23 16,-26 15,-31 Z" fill="#4E241D" stroke="#1E1B18" stroke-width="1.8" stroke-linejoin="round" stroke-linecap="round" /><path d="M -18,-78 C -22,-94 -14,-108 2,-111 C 18,-114 30,-106 33,-94 C 34,-88 33,-83 31,-80 C 26,-86 20,-90 12,-90 C 4,-90 -4,-88 -10,-84 C -13,-82 -16,-80 -18,-78 Z" fill="#2A1D17" stroke="#1E1B18" stroke-width="2.6" stroke-linejoin="round" stroke-linecap="round" /><path d="M -17,-84 C -23,-72 -24,-54 -22,-38 C -21,-30 -18,-24 -13,-22 C -12,-28 -12,-40 -11,-52 C -10,-64 -11,-76 -17,-84 Z" fill="#2A1D17" stroke="#1E1B18" stroke-width="2.6" stroke-linejoin="round" stroke-linecap="round" /><path d="M -2,-104 C 8,-108 20,-105 27,-96" fill="none" stroke="#4A3A32" stroke-width="1.6" stroke-linejoin="round" stroke-linecap="round" /><path d="M -32,-80 C -30,-94 -20,-102 -8,-104" fill="none" stroke="#4A3A32" stroke-width="1.6" stroke-linejoin="round" stroke-linecap="round" /><path d="M -38,-50 C -39,-62 -36,-72 -30,-78" fill="none" stroke="#4A3A32" stroke-width="1.4" stroke-linejoin="round" stroke-linecap="round" /><path d="M -25,-64 C -32,-96 -18,-122 6,-122 C 28,-122 37,-104 36,-92" fill="none" stroke="#1E1B18" stroke-width="11" stroke-linejoin="round" stroke-linecap="round" /><path d="M -25,-64 C -32,-96 -18,-122 6,-122 C 28,-122 37,-104 36,-92" fill="none" stroke="#E8432E" stroke-width="6" stroke-linejoin="round" stroke-linecap="round" /><path d="M -18,-100 C -8,-114 12,-116 26,-104" fill="none" stroke="#F6A090" stroke-width="1.6" stroke-linejoin="round" stroke-linecap="round" /><path d="M -16,-42 C -10,-28 0,-24 12,-25" fill="none" stroke="#1E1B18" stroke-width="5" stroke-linejoin="round" stroke-linecap="round" /><path d="M -16,-42 C -10,-28 0,-24 12,-25" fill="none" stroke="#3A3D44" stroke-width="2.4" stroke-linejoin="round" stroke-linecap="round" /><rect x="9" y="-29" width="10" height="7.5" rx="3.6" fill="#1E1B18"/><rect x="-35" y="-74" width="25" height="36" rx="11" fill="#E8432E" stroke="#1E1B18" stroke-width="2.6"/><rect x="-31" y="-69" width="8" height="26" rx="4" fill="#B8321F"/><circle cx="-18" cy="-56" r="3" fill="#FFFDF8" stroke="#1E1B18" stroke-width="1.4"/></g><g transform="rotate(0)"><path d="M -40,-30 L 36,-30 C 38,-14 37,0 33,14 L -36,14 C -41,0 -42,-16 -40,-30 Z" fill="#2C3446" stroke="#1E1B18" stroke-width="2.6" stroke-linejoin="round" stroke-linecap="round" /><path d="M -40,-30 L 36,-30 L 36,-18 L -40,-18 Z" fill="#2C3446" stroke="none" stroke-width="0" stroke-linejoin="round" stroke-linecap="round" /><path d="M -39,-24 L 35,-24" fill="none" stroke="#3B4458" stroke-width="1.6" stroke-linejoin="round" stroke-linecap="round" /><path d="M -2,-20 L -2,10" fill="none" stroke="#3B4458" stroke-width="1.5" stroke-linejoin="round" stroke-linecap="round" /><path d="M -12,-238 C -26,-236 -42,-228 -48,-212 C -52,-198 -50,-170 -48,-140 C -46,-100 -45,-60 -44,-28 C -20,-22 14,-22 38,-28 C 39,-60 41,-100 42,-140 C 43,-170 44,-196 38,-214 C 33,-228 24,-235 14,-238 Z" fill="#D9A441" stroke="#1E1B18" stroke-width="2.6" stroke-linejoin="round" stroke-linecap="round" /><path d="M 24,-200 C 30,-150 33,-90 32,-28 L 38,-28 C 39,-60 41,-100 42,-140 C 43,-170 44,-196 38,-214 Z" fill="#C28E30" stroke="none" stroke-width="0" stroke-linejoin="round" stroke-linecap="round" /><path d="M -12,-238 C -26,-236 -42,-228 -48,-212 C -52,-198 -50,-170 -48,-140 C -46,-100 -45,-60 -44,-28 C -20,-22 14,-22 38,-28 C 39,-60 41,-100 42,-140 C 43,-170 44,-196 38,-214 C 33,-228 24,-235 14,-238 Z" fill="none" stroke="#1E1B18" stroke-width="2.6" stroke-linejoin="round" stroke-linecap="round" /><path d="M -30,-150 C -26,-120 -26,-90 -30,-60" fill="none" stroke="#A6782A" stroke-width="1.2" stroke-linejoin="round" stroke-linecap="round" /><path d="M -16,-238 C -10,-226 12,-226 18,-238 C 12,-242 -10,-242 -16,-238 Z" fill="#C8946C" stroke="#1E1B18" stroke-width="2" stroke-linejoin="round" stroke-linecap="round" /><path d="M -18,-238 C -10,-222 12,-222 20,-238" fill="none" stroke="#1E1B18" stroke-width="2.4" stroke-linejoin="round" stroke-linecap="round" /><path d="M -6,-226 C -2,-170 -2,-90 -4,-26 L 12,-26 C 12,-90 12,-170 10,-226 C 6,-222 -2,-222 -6,-226 Z" fill="#F3EEE4" stroke="#1E1B18" stroke-width="2" stroke-linejoin="round" stroke-linecap="round" /><circle cx="13.5" cy="-160" r="2.6" fill="#1E1B18"/><circle cx="13.5" cy="-110" r="2.6" fill="#1E1B18"/><circle cx="13.5" cy="-60" r="2.6" fill="#1E1B18"/><path d="M -40,-34 C -16,-28 14,-28 37,-34" fill="none" stroke="#A6782A" stroke-width="1.4" stroke-linejoin="round" stroke-linecap="round" /></g><g transform="translate(36,-36) rotate(-48.1) scale(1.25)"><path d="M -10,-2 C -12,10 -12,22 -9,30 C -6,37 3,38 7,32 C 11,24 11,12 10,-2 Z" fill="#C8946C" stroke="#1E1B18" stroke-width="2.6" stroke-linejoin="round" stroke-linecap="round" /><path d="M -3,20 C -2,26 -1,30 0,34" fill="none" stroke="#B07D57" stroke-width="1.4" stroke-linejoin="round" stroke-linecap="round" /><path d="M 3,20 C 4,25 4,29 4,32" fill="none" stroke="#B07D57" stroke-width="1.2" stroke-linejoin="round" stroke-linecap="round" /><path d="M 9,4 C 15,8 16,16 12,21 C 10,18 9,12 9,4 Z" fill="#C8946C" stroke="#1E1B18" stroke-width="2" stroke-linejoin="round" stroke-linecap="round" /></g><path d="M -55,-203.3 L -54.9,-202.8 L -54.9,-201.6 L -54.7,-199.8 L -54.6,-197.4 L -54.4,-195.1 L -54.3,-192.7 L -54.1,-190.4 L -53.9,-188 L -53.8,-185.7 L -53.6,-183.3 L -53.5,-180.9 L -53.3,-178.6 L -53.1,-176.2 L -53,-173.9 L -52.8,-171.5 L -52.7,-169.1 L -52.5,-166.8 L -52.3,-164.4 L -52.2,-162.1 L -52,-159.7 L -51.9,-157.3 L -51.7,-155 L -51.5,-152.6 L -51.4,-150.3 L -51.2,-147.9 L -51.1,-145.6 L -50.9,-143.2 L -50.7,-140.8 L -50.6,-138.5 L -50.4,-136.1 L -50.3,-133.8 L -50.1,-131.4 L -49.9,-129 L -49.8,-126.7 L -49.6,-124.3 L -49.5,-122 L -49.3,-119.6 L -49.1,-117.2 L -49,-114.9 L -48.8,-112.5 L -48.7,-110.2 L -48.5,-107.8 L -48.3,-105.5 L -48.1,-101.9 L -46.9,-97.3 L -44.8,-93 L -41.9,-89.2 L -39.3,-86.9 L -37.5,-85.3 L -35.7,-83.7 L -33.8,-82.1 L -32,-80.6 L -30.2,-79 L -28.4,-77.4 L -26.6,-75.8 L -24.8,-74.3 L -23,-72.7 L -21.2,-71.1 L -19.4,-69.5 L -17.5,-68 L -15.7,-66.4 L -13.9,-64.8 L -12.1,-63.2 L -10.3,-61.7 L -8.5,-60.1 L -6.7,-58.5 L -4.9,-56.9 L -3.1,-55.4 L -1.2,-53.8 L 0.6,-52.2 L 2.4,-50.6 L 4.2,-49.1 L 6,-47.5 L 7.8,-45.9 L 9.6,-44.3 L 11.4,-42.8 L 13.3,-41.2 L 15.1,-39.6 L 16.9,-38 L 18.7,-36.5 L 20.5,-34.9 L 22.3,-33.3 L 24.1,-31.7 L 25.9,-30.2 L 27.3,-29 L 28.2,-28.2 L 28.7,-27.8 L 43.3,-44.2 L 42.9,-44.6 L 42,-45.4 L 40.7,-46.6 L 38.9,-48.3 L 37.2,-49.9 L 35.4,-51.5 L 33.7,-53.2 L 31.9,-54.8 L 30.1,-56.4 L 28.4,-58 L 26.6,-59.7 L 24.8,-61.3 L 23.1,-62.9 L 21.3,-64.6 L 19.6,-66.2 L 17.8,-67.8 L 16,-69.5 L 14.3,-71.1 L 12.5,-72.7 L 10.8,-74.4 L 9,-76 L 7.2,-77.6 L 5.5,-79.2 L 3.7,-80.9 L 1.9,-82.5 L 0.2,-84.1 L -1.6,-85.8 L -3.3,-87.4 L -5.1,-89 L -6.9,-90.7 L -8.6,-92.3 L -10.4,-93.9 L -12.1,-95.5 L -13.9,-97.2 L -15.7,-98.8 L -17.4,-100.4 L -19.2,-102.1 L -21,-103.7 L -22.7,-105.3 L -23.7,-106.2 L -23.5,-106 L -23.3,-105.6 L -23.2,-105.4 L -23.1,-106.6 L -23.1,-108.9 L -23.2,-111.3 L -23.2,-113.6 L -23.3,-116 L -23.3,-118.4 L -23.4,-120.7 L -23.4,-123.1 L -23.5,-125.5 L -23.5,-127.8 L -23.6,-130.2 L -23.6,-132.6 L -23.7,-134.9 L -23.7,-137.3 L -23.7,-139.6 L -23.8,-142 L -23.8,-144.4 L -23.9,-146.7 L -23.9,-149.1 L -24,-151.5 L -24,-153.8 L -24.1,-156.2 L -24.1,-158.6 L -24.2,-160.9 L -24.2,-163.3 L -24.3,-165.7 L -24.3,-168 L -24.3,-170.4 L -24.4,-172.7 L -24.4,-175.1 L -24.5,-177.5 L -24.5,-179.8 L -24.6,-182.2 L -24.6,-184.6 L -24.7,-186.9 L -24.7,-189.3 L -24.8,-191.7 L -24.8,-194 L -24.9,-196.4 L -24.9,-198.7 L -24.9,-201.1 L -25,-202.9 L -25,-204.1 L -25,-204.7 L -25.7,-208.5 L -27.3,-212.1 L -29.9,-215.1 L -33.1,-217.3 L -36.8,-218.6 L -40.7,-219 L -44.5,-218.3 L -48.1,-216.7 L -51.1,-214.1 L -53.3,-210.9 L -54.6,-207.2 Z" fill="#D9A441" stroke="#1E1B18" stroke-width="2.6" stroke-linejoin="round" stroke-linecap="round" /><path d="M -35.3,-106.2 Q -30.3,-101.2 -25.3,-106.2" fill="none" stroke="#A6782A" stroke-width="1.4" stroke-linejoin="round" stroke-linecap="round" /><path d="M 17.2,-36 L 33.9,-54.7 L 44.3,-45.3 L 27.7,-26.7 Z" fill="#D9A441" stroke="#1E1B18" stroke-width="2.2" stroke-linejoin="round" stroke-linecap="round" /></g></svg>